<?xml version="1.0" encoding="UTF-8" standalone="no"?>
<svg width="32px" height="28px" viewBox="0 0 32 28" version="1.1" xmlns="http://www.w3.org/2000/svg" xmlns:xlink="http://www.w3.org/1999/xlink" xmlns:sketch="http://www.bohemiancoding.com/sketch/ns">
    <!-- Generator: Sketch Beta 3.3 (11751) - http://www.bohemiancoding.com/sketch -->
    <title>Artboard 12</title>
    <desc>Created with Sketch Beta.</desc>
    <defs></defs>
    <g id="Application-V3" stroke="none" stroke-width="1" fill="none" fill-rule="evenodd" sketch:type="MSPage">
        <g id="Artboard-12" sketch:type="MSArtboardGroup" fill="#000000">
            <g id="fa-desktop" sketch:type="MSLayerGroup">
                <path d="M1.3376,22.4048571 C1.85472,22.8947143 2.4576,23.1544286 3.14752,23.1544286 L11.88224,23.1544286 C11.88224,23.5594286 11.7952,23.9914286 11.62368,24.4247143 C11.45088,24.8284286 11.27808,25.2038571 11.10656,25.5497143 C10.93376,25.8672857 10.848,26.0987143 10.848,26.2427143 C10.848,26.5307143 10.93376,26.7621429 11.13472,26.964 C11.36512,27.1658571 11.59424,27.2815714 11.88224,27.2815714 L20.0704,27.2815714 C20.35712,27.2815714 20.58752,27.1658571 20.81664,26.964 C21.0176,26.7621429 21.10464,26.5307143 21.10464,26.2427143 C21.10464,26.0987143 21.0176,25.8672857 20.84608,25.5497143 C20.67328,25.2321429 20.50048,24.8284286 20.32896,24.3964286 C20.15616,23.9631429 20.0704,23.5594286 20.0704,23.1544286 L28.80384,23.1544286 C29.49376,23.1544286 30.09664,22.8947143 30.61376,22.4048571 C31.10272,21.8854286 31.36128,21.2785714 31.36128,20.5868571 L31.36128,3.04071429 C31.36128,2.34771429 31.10272,1.74214286 30.61376,1.22271429 C30.09664,0.731571429 29.49376,0.471857143 28.80384,0.471857143 L3.14752,0.471857143 C2.4576,0.471857143 1.85472,0.731571429 1.3376,1.22271429 C0.84864,1.74214286 0.59008,2.34771429 0.59008,3.04071429 L0.59008,20.5868571 C0.59008,21.2785714 0.84864,21.8854286 1.3376,22.4048571 L1.3376,22.4048571 Z M2.6304,3.04071429 C2.6304,2.89542857 2.688,2.781 2.77376,2.66528571 C2.88896,2.57914286 3.00416,2.52128571 3.14752,2.52128571 L28.80384,2.52128571 C28.9472,2.52128571 29.0624,2.57914286 29.1776,2.66528571 C29.26336,2.781 29.32096,2.89542857 29.32096,3.04071429 L29.32096,16.4597143 C29.32096,16.6037143 29.26336,16.7194286 29.1776,16.8351429 C29.0624,16.9212857 28.9472,16.9791429 28.80384,16.9791429 L3.14752,16.9791429 C3.00416,16.9791429 2.88896,16.9212857 2.77376,16.8351429 C2.688,16.7194286 2.6304,16.6037143 2.6304,16.4597143 L2.6304,3.04071429 L2.6304,3.04071429 Z" id="Fill-192" sketch:type="MSShapeGroup"></path>
            </g>
        </g>
    </g>
</svg>
