<?xml version="1.0" encoding="UTF-8" standalone="no"?>
<svg width="15px" height="28px" viewBox="0 0 15 28" version="1.1" xmlns="http://www.w3.org/2000/svg" xmlns:xlink="http://www.w3.org/1999/xlink" xmlns:sketch="http://www.bohemiancoding.com/sketch/ns">
    <!-- Generator: Sketch Beta 3.3 (11751) - http://www.bohemiancoding.com/sketch -->
    <title>Artboard 13</title>
    <desc>Created with Sketch Beta.</desc>
    <defs></defs>
    <g id="Application-V3" stroke="none" stroke-width="1" fill="none" fill-rule="evenodd" sketch:type="MSPage">
        <g id="Artboard-13" sketch:type="MSArtboardGroup" fill="#000000">
            <g id="fa-mobile" sketch:type="MSLayerGroup" transform="translate(0.000000, 3.000000)">
                <path d="M1.57227273,20.5790588 C2.00045455,20.9854118 2.52136364,21.1885882 3.13363636,21.1885882 L11.8868182,21.1885882 C12.4690909,21.1885882 12.9886364,20.9854118 13.4168182,20.5790588 C13.8463636,20.1714118 14.0604545,19.6783529 14.0604545,19.1257647 L14.0604545,2.51058824 C14.0604545,1.95929412 13.8463636,1.46494118 13.4168182,1.05858824 C12.9886364,0.652235294 12.4690909,0.449058824 11.8868182,0.449058824 L3.13363636,0.449058824 C2.52136364,0.449058824 2.00045455,0.652235294 1.57227273,1.05858824 C1.14409091,1.46494118 0.93,1.95929412 0.93,2.51058824 L0.93,19.1257647 C0.93,19.6783529 1.14409091,20.1714118 1.57227273,20.5790588 L1.57227273,20.5790588 Z M2.58272727,5.126 C2.58272727,4.97976471 2.64409091,4.86329412 2.73545455,4.74811765 C2.85818182,4.66011765 2.98090909,4.60188235 3.13363636,4.60188235 L11.8568182,4.60188235 C12.0095455,4.60188235 12.1322727,4.66011765 12.255,4.74811765 C12.3463636,4.86329412 12.4077273,4.97976471 12.4077273,5.126 L12.4077273,16.5116471 C12.4077273,16.6565882 12.3463636,16.7730588 12.255,16.8895294 C12.1322727,16.9762353 12.0095455,17.0344706 11.8568182,17.0344706 L3.13363636,17.0344706 C2.98090909,17.0344706 2.85818182,16.9762353 2.73545455,16.8895294 C2.64409091,16.7730588 2.58272727,16.6565882 2.58272727,16.5116471 L2.58272727,5.126 L2.58272727,5.126 Z M6.13363636,2.51058824 L8.85681818,2.51058824 C9.04090909,2.51058824 9.13227273,2.59858824 9.13227273,2.772 C9.13227273,2.94670588 9.04090909,3.03341176 8.85681818,3.03341176 L6.13363636,3.03341176 C5.94954545,3.03341176 5.85681818,2.94670588 5.85681818,2.772 C5.85681818,2.59858824 5.94954545,2.51058824 6.13363636,2.51058824 L6.13363636,2.51058824 Z M7.47954545,17.8187059 C7.87772727,17.8187059 8.18318182,17.9351765 8.45863636,18.1965882 C8.73409091,18.458 8.85681818,18.7478824 8.85681818,19.0972941 C8.85681818,19.4751765 8.73409091,19.7650588 8.45863636,20.0264706 C8.18318182,20.2878824 7.87772727,20.4043529 7.47954545,20.4043529 C7.11272727,20.4043529 6.80590909,20.2878824 6.53045455,20.0264706 C6.255,19.7650588 6.13363636,19.4751765 6.13363636,19.0972941 C6.13363636,18.7478824 6.255,18.458 6.53045455,18.1965882 C6.80590909,17.9351765 7.11272727,17.8187059 7.47954545,17.8187059 L7.47954545,17.8187059 Z" id="Fill-159" sketch:type="MSShapeGroup"></path>
            </g>
        </g>
    </g>
</svg>
